<?xml version="1.0" encoding="utf-8"?>
<!-- Generator: Adobe Illustrator 16.0.0, SVG Export Plug-In . SVG Version: 6.00 Build 0)  -->
<!DOCTYPE svg PUBLIC "-//W3C//DTD SVG 1.1//EN" "http://www.w3.org/Graphics/SVG/1.1/DTD/svg11.dtd">
<svg version="1.1" fill="#19b764" id="Layer_1" xmlns="http://www.w3.org/2000/svg" xmlns:xlink="http://www.w3.org/1999/xlink" x="0px" y="0px" width="841.89px" height="595.28px" viewBox="0 0 841.89 595.28" enable-background="new 0 0 841.89 595.28" xml:space="preserve">
<path d="M322.043,174.442c4.662-3.336,7.387-9.159,7.387-16.008c0-15.756-9.539-24.79-26.169-24.79h-33.18v89.898h33.807
	c18.816,0,30.051-10.298,30.051-27.545C333.939,185.716,329.938,178.477,322.043,174.442z M302.386,167.7h-13.774v-16.781h13.399
	c6.848,0,9.517,2.353,9.517,8.391C311.528,165.348,308.964,167.7,302.386,167.7z M288.612,184.979h13.774
	c8.763,0,13.022,3.481,13.022,10.643c0,7.163-4.259,10.644-13.022,10.644h-13.774V184.979z M393.064,133.644h18.529v55.467
	c0,22.517-12.322,35.434-33.807,35.434c-21.484,0-33.805-12.917-33.805-35.434v-55.467h18.529v55.716
	c0,12.05,4.997,17.906,15.276,17.906c10.28,0,15.278-5.856,15.278-17.906V133.644z M461.611,196.048l20.626-0.078l-12.589-29.358
	c10.075-3.582,15.815-12.309,15.815-24.165c0-16.062-10.65-26.043-27.795-26.043h-33.054v107.139h18.529v-55.054h6.761
	L461.611,196.048z M457.795,151.213h-14.65v-17.532h14.65c6.236,0,9.14,2.786,9.14,8.766
	C466.935,148.426,464.031,151.213,457.795,151.213z M578.269,153.609c-6.771-13.402-22.126-21.403-41.074-21.403
	c-10.034,0-18.644,1.985-25.599,5.907c-13.504,7.664-20.354,19.959-20.354,36.541c0,7.889,1.555,14.773,4.764,21.056
	c1.922,3.654,4.482,6.89,7.546,9.688c-4.359-1.039-9.042-1.594-13.976-1.594c-10.031,0-18.644,1.986-25.599,5.906
	c-9.693,5.503-15.938,13.402-18.703,23.548h19.416c0.945-1.395,2.054-2.718,3.365-3.962c4.812-4.454,12.056-6.712,21.521-6.712
	c9.466,0,16.708,2.259,21.516,6.702c1.311,1.247,2.423,2.574,3.37,3.972h19.333c-0.78-2.772-1.819-5.45-3.145-8.05
	c-1.854-3.669-4.371-6.917-7.408-9.723c4.363,1.052,9.039,1.614,13.952,1.614c9.886,0,18.497-2.03,25.584-6.023
	c13.516-7.428,20.368-19.684,20.368-36.422C583.146,166.926,581.551,160.042,578.269,153.609z M558.707,191.49
	c-4.77,4.531-12.009,6.827-21.513,6.827c-9.507,0-16.743-2.296-21.521-6.837c-4.746-4.389-7.152-10.052-7.152-16.826
	c0-6.839,2.341-12.387,7.152-16.954c4.812-4.454,12.055-6.712,21.521-6.712c9.469,0,16.708,2.258,21.513,6.702
	c4.819,4.577,7.162,10.125,7.162,16.964C565.869,181.428,563.464,187.09,558.707,191.49z M514.382,330.514h19.413
	c-2.763,10.145-9.005,18.045-18.7,23.547c-6.956,3.92-15.565,5.906-25.598,5.906c-18.951,0-34.304-8-41.074-21.404
	c-1.327-2.6-2.365-5.277-3.148-8.049h19.334c0.95,1.396,2.062,2.725,3.374,3.971c4.808,4.443,12.046,6.703,21.515,6.703
	c9.466,0,16.708-2.26,21.521-6.713C512.327,333.23,513.435,331.908,514.382,330.514z M384.923,326.852h20.802l-24.601-39.693
	c10.074-3.583,15.816-12.311,15.816-24.167c0-16.063-10.651-26.042-27.797-26.042h-33.056v89.902h18.53v-37.816h6.763
	L384.923,326.852z M369.27,271.757h-14.651v-17.53h14.651c6.236,0,9.14,2.785,9.14,8.764
	C378.41,268.972,375.506,271.757,369.27,271.757z M304.872,236.874h18.538v55.466c0,22.518-12.325,35.438-33.817,35.438
	c-21.486,0-33.805-12.92-33.805-35.438v-55.466h18.529v55.716c0,12.05,4.997,17.906,15.276,17.906
	c10.278,0,15.279-5.855,15.279-17.906V236.874z M229.711,295.007l16.702,4.284l-0.264,1.082
	c-4.258,17.414-18.459,27.404-37.406,27.404c-11.812,0-21.978-4.113-30.215-12.221c-8.199-8.07-12.358-19.42-12.358-33.732
	c0-14.312,4.159-25.663,12.358-33.733c8.237-8.109,18.403-12.22,30.215-12.22c19.515,0,33.148,9.989,37.406,27.404l0.264,1.082
	l-16.702,4.283l-0.358-0.936c-3.749-9.793-10.489-14.554-20.61-14.554c-6.857,0-12.605,2.449-17.08,7.277
	c-4.45,4.932-6.711,12.134-6.711,21.397s2.261,16.466,6.723,21.406c4.463,4.818,10.211,7.268,17.068,7.268
	c10.122,0,16.862-4.76,20.61-14.552L229.711,295.007z M413.743,236.874h18.531v89.901h-18.531V236.874z M535.467,281.871
	c0-7.724-1.599-14.608-4.881-21.041c-6.77-13.404-22.123-21.405-41.074-21.405c-10.031,0-18.644,1.987-25.598,5.907
	c-13.504,7.665-20.354,19.959-20.354,36.539c0,7.891,1.557,14.776,4.762,21.059c7.041,13.393,22.44,21.389,41.189,21.389
	c9.885,0,18.496-2.029,25.587-6.025C528.612,310.865,535.467,298.613,535.467,281.871z M460.84,281.871
	c0-6.834,2.343-12.384,7.15-16.952c4.814-4.455,12.057-6.713,21.521-6.713c9.469,0,16.708,2.258,21.516,6.702
	c4.819,4.579,7.16,10.129,7.16,16.963c0,6.777-2.405,12.44-7.16,16.838c-4.77,4.531-12.009,6.828-21.516,6.828
	c-9.503,0-16.742-2.297-21.521-6.838C463.245,294.311,460.84,288.648,460.84,281.871z M588.32,236.874h18.529v73.128
	c0,22.52-8.699,35.436-30.186,35.436s-29.547-12.916-29.547-35.436v-73.128h18.526v73.378c0,12.049,0.739,17.908,11.021,17.908
	s11.656-5.859,11.656-17.908V236.874z M676.982,299.361c0,17.523-11.182,28.416-29.176,28.416c-7.867,0-14.764-2.451-20.507-7.277
	c-5.729-4.947-9.987-11.057-11.41-18.172l-0.152-0.76l15.716-9.478l0.408,1.446c3.247,11.413,8.582,16.961,16.32,16.961
	c7.008,0,10.271-3.264,10.271-10.268c0-3.986-4.15-7.766-12.333-11.235c-8.61-3.629-24.631-10.386-24.355-28.225
	c0-6.892,2.385-12.843,7.081-17.672c4.866-4.866,10.738-7.228,17.963-7.228c12.29,0,21.141,5.568,26.312,16.549l0.422,0.896
	l-15.029,9.589l-0.563-1.104c-2.927-5.739-6.676-8.651-11.141-8.651c-4.276,0-7.262,2.832-7.262,6.887
	c0,4.149,3.971,7.964,12.5,12.004C662.014,276.43,677.114,283.083,676.982,299.361z M498.983,274.403
	c2.12,2.015,3.152,4.46,3.152,7.468c0,2.983-1.059,5.478-3.152,7.413c-2.097,1.995-5.286,3.004-9.472,3.004
	c-4.183,0-7.368-1.01-9.472-3.009c-2.088-1.93-3.15-4.425-3.15-7.408c0-3.008,1.036-5.453,3.15-7.46
	c2.119-1.962,5.307-2.957,9.472-2.957C493.681,271.454,496.868,272.448,498.983,274.403z M297.584,414.246h-21.374
	c0.186,3.756,2.896,7.021,7.33,7.021c3.14,0,5.667-1.604,7.515-4.807l6.16,2.279c-2.65,6.035-7.33,9.055-14.105,9.055
	c-10.654,0-14.905-8.625-14.905-16.014c0-7.393,4.251-16.014,14.905-16.014c4.927,0,8.932,2.031,11.148,5.174
	c2.217,3.016,3.327,6.65,3.327,10.162V414.246z M276.397,408.209h13.365c-0.862-3.941-3.081-5.914-6.652-5.914
	C279.475,402.295,276.951,404.945,276.397,408.209z M319.442,396.26h8.007l-8.993,14.475l10.286,16.566h-8.006l-6.346-10.1
	l-6.341,10.1h-8.007l10.283-16.566l-8.99-14.475h8.007l5.049,8.068L319.442,396.26z M341.795,424.469v15.396h-7.637V396.26h7.637
	v3.203c0.986-1.787,4.004-3.695,7.515-3.695c9.115,0,14.165,6.223,14.165,16.014c0,9.793-5.05,16.014-14.165,16.014
	C346.292,427.795,343.212,426.256,341.795,424.469z M355.468,411.781c0-2.957-0.678-5.299-2.031-6.959
	c-1.356-1.666-3.082-2.527-5.177-2.527c-2.092,0-3.817,0.861-5.174,2.527c-1.292,1.66-1.97,3.939-1.97,6.959
	c0,3.018,0.678,5.357,1.97,7.02c1.357,1.666,3.082,2.467,5.174,2.467c2.095,0,3.82-0.865,5.177-2.527
	C354.791,417.078,355.468,414.738,355.468,411.781z M398.575,414.246h-21.372c0.186,3.756,2.896,7.021,7.33,7.021
	c3.141,0,5.667-1.604,7.515-4.807l6.158,2.279c-2.648,6.035-7.329,9.055-14.104,9.055c-10.655,0-14.906-8.625-14.906-16.014
	c0-7.393,4.25-16.014,14.906-16.014c4.927,0,8.931,2.031,11.147,5.174c2.217,3.016,3.326,6.65,3.326,10.162V414.246z
	 M377.389,408.209h13.363c-0.86-3.941-3.079-5.914-6.65-5.914C380.467,402.295,377.942,404.945,377.389,408.209z M413.104,427.301
	h-7.637V396.26h7.637v5.051c2.218-3.512,5.543-5.543,9.179-5.543c1.17,0,2.403,0.184,3.757,0.617l-1.418,7.082
	c-0.924-0.555-2.034-0.865-3.202-0.865c-4.867,0-8.315,4.252-8.315,13.676V427.301z M432.07,383.818c1.91-1.91,5.112-1.91,7.023,0
	c1.907,1.91,1.907,5.113,0,7.021c-1.911,1.91-5.113,1.91-7.023,0C430.162,388.932,430.162,385.729,432.07,383.818z M431.764,396.26
	h7.637v31.041h-7.637V396.26z M476.165,414.246h-21.371c0.186,3.756,2.896,7.021,7.328,7.021c3.141,0,5.666-1.604,7.515-4.807
	l6.16,2.279c-2.649,6.035-7.331,9.055-14.106,9.055c-10.653,0-14.906-8.625-14.906-16.014c0-7.393,4.253-16.014,14.906-16.014
	c4.928,0,8.932,2.031,11.149,5.174c2.217,3.016,3.325,6.65,3.325,10.162V414.246z M454.979,408.209h13.363
	c-0.862-3.941-3.08-5.914-6.652-5.914C458.056,402.295,455.533,404.945,454.979,408.209z M483.12,396.26h7.636v4.988
	c2.528-3.633,5.73-5.48,9.609-5.48c5.729,0,9.547,3.264,9.547,9.359v22.174h-7.638v-19.895c0-3.385-1.479-5.111-4.433-5.111
	c-3.945,0-7.086,4.805-7.086,12.627v12.379h-7.636V396.26z M545.199,418.924c-2.403,5.914-7.084,8.871-14.106,8.871
	c-4.866,0-8.562-1.539-11.21-4.559c-2.646-3.018-3.942-6.836-3.942-11.455c0-4.621,1.296-8.438,3.942-11.457
	c2.648-3.018,6.344-4.557,11.21-4.557c7.022,0,11.703,2.955,14.106,8.867l-6.838,2.771c-1.663-3.385-4.13-5.111-7.269-5.111
	c-4.681,0-7.146,3.818-7.146,9.486c0,5.664,2.465,9.486,7.146,9.486c3.139,0,5.605-1.727,7.269-5.113L545.199,418.924z
	 M578.33,414.246h-21.375c0.186,3.756,2.895,7.021,7.331,7.021c3.141,0,5.666-1.604,7.515-4.807l6.16,2.279
	c-2.652,6.035-7.331,9.055-14.11,9.055c-10.652,0-14.903-8.625-14.903-16.014c0-7.393,4.251-16.014,14.903-16.014
	c4.929,0,8.936,2.031,11.15,5.174c2.217,3.016,3.329,6.65,3.329,10.162V414.246z M557.141,408.209h13.366
	c-0.862-3.941-3.08-5.914-6.656-5.914C560.22,402.295,557.694,404.945,557.141,408.209z M335.238,472.135
	c-2.4,5.912-7.082,8.869-14.103,8.869c-4.868,0-8.562-1.541-11.211-4.559c-2.647-3.018-3.941-6.836-3.941-11.455
	s1.294-8.439,3.941-11.455c2.649-3.02,6.343-4.559,11.211-4.559c7.021,0,11.702,2.957,14.103,8.869l-6.835,2.771
	c-1.664-3.389-4.126-5.113-7.267-5.113c-4.681,0-7.146,3.822-7.146,9.486c0,5.666,2.464,9.484,7.146,9.484
	c3.141,0,5.604-1.725,7.267-5.111L335.238,472.135z M349.03,480.51h-7.637v-31.041h7.637v5.051c2.218-3.51,5.542-5.543,9.178-5.543
	c1.172,0,2.403,0.184,3.758,0.617l-1.417,7.082c-0.924-0.553-2.033-0.863-3.202-0.863c-4.866,0-8.316,4.252-8.316,13.674V480.51z
	 M394.604,467.453H373.23c0.187,3.758,2.896,7.021,7.33,7.021c3.141,0,5.666-1.602,7.515-4.805l6.159,2.279
	c-2.649,6.035-7.33,9.055-14.105,9.055c-10.655,0-14.906-8.623-14.906-16.014c0-7.393,4.251-16.014,14.906-16.014
	c4.927,0,8.931,2.033,11.148,5.174c2.217,3.018,3.327,6.65,3.327,10.164V467.453z M373.417,461.418h13.364
	c-0.861-3.941-3.08-5.914-6.652-5.914C376.495,455.504,373.97,458.154,373.417,461.418z M401.003,457.598
	c0.983-5.174,5.606-8.621,11.825-8.621c8.685,0,13.057,4.312,13.057,12.996v18.537h-6.282l-0.799-3.939
	c-2.404,2.957-5.605,4.434-9.547,4.434c-5.482,0-9.424-3.451-9.424-9.422c0-6.162,5.359-10.164,13.243-10.164h5.174v-1.354
	c0-3.02-1.786-4.561-5.421-4.561c-2.772,0-4.558,1.172-5.359,3.576L401.003,457.598z M411.043,474.475
	c1.909,0,3.572-0.615,4.988-1.785c1.479-1.17,2.219-2.709,2.219-4.621v-0.615h-5.115c-3.509,0-5.295,1.355-5.295,4.004
	C407.839,473.119,409.011,474.475,411.043,474.475z M451.87,479.895c-1.602,0.738-3.264,1.109-5.051,1.109
	c-7.144,0-11.393-3.881-11.393-11.457v-13.549h-4.806v-6.529h4.806v-7.76l7.638-4.805v12.564h8.189v6.529h-8.189v13.426
	c0,3.695,1.354,5.051,4.063,5.051c1.047,0,2.032-0.246,2.956-0.738L451.87,479.895z M455.994,464.99
	c0-4.619,1.417-8.439,4.25-11.455c2.833-3.02,6.652-4.559,11.517-4.559c4.866,0,8.685,1.539,11.518,4.559
	c2.834,3.016,4.247,6.836,4.247,11.455s-1.413,8.5-4.247,11.518c-2.833,3.02-6.651,4.496-11.518,4.496
	c-4.864,0-8.684-1.477-11.517-4.496C457.411,473.49,455.994,469.609,455.994,464.99z M463.999,464.99
	c0,2.646,0.678,4.926,2.097,6.777c1.414,1.783,3.262,2.707,5.665,2.707c2.401,0,4.25-0.924,5.666-2.707
	c1.417-1.852,2.095-4.131,2.095-6.777c0-2.65-0.678-4.926-2.095-6.715c-1.416-1.848-3.265-2.771-5.666-2.771
	c-2.403,0-4.251,0.924-5.665,2.771C464.677,460.064,463.999,462.34,463.999,464.99z M501.875,480.51h-7.638v-31.041h7.638v5.051
	c2.215-3.51,5.541-5.543,9.176-5.543c1.171,0,2.402,0.184,3.758,0.617l-1.417,7.082c-0.924-0.553-2.036-0.863-3.203-0.863
	c-4.866,0-8.313,4.252-8.313,13.674V480.51z M538.638,454.025l-4.559,4.189c-1.417-1.787-3.139-2.711-5.171-2.711
	c-1.543,0-2.834,0.924-2.834,2.588c0,1.293,0.983,2.279,2.957,3.018l2.217,0.801l2.646,0.924c0.494,0.184,1.233,0.615,2.219,1.172
	c1.05,0.555,1.789,1.045,2.218,1.6c0.924,1.047,1.909,2.895,1.909,5.051c0,2.895-1.048,5.297-3.077,7.328
	c-2.035,2.033-4.685,3.02-7.946,3.02c-2.956,0-5.543-0.863-7.7-2.525c-2.155-1.662-3.698-3.635-4.619-5.852l6.095-3.264
	c1.235,3.387,3.33,5.111,6.225,5.111c2.525,0,3.816-1.109,3.816-3.326c0-0.984-0.492-1.785-1.66-2.34
	c-0.558-0.309-1.174-0.555-1.728-0.74c-1.047-0.492-3.201-1.17-4.371-1.662c-3.942-1.664-6.283-3.943-6.283-8.377
	c0-2.525,0.924-4.617,2.772-6.404c1.848-1.787,4.247-2.648,7.146-2.648C533.032,448.977,536.666,451.01,538.638,454.025z"/>
</svg>
